<?xml version="1.0" encoding="utf-8"?>
<!-- Generator: Adobe Illustrator 18.0.0, SVG Export Plug-In . SVG Version: 6.00 Build 0)  -->
<!DOCTYPE svg PUBLIC "-//W3C//DTD SVG 1.1//EN" "http://www.w3.org/Graphics/SVG/1.1/DTD/svg11.dtd">
<svg version="1.1" xmlns="http://www.w3.org/2000/svg" xmlns:xlink="http://www.w3.org/1999/xlink" x="0px" y="0px" width="35px"
	 height="45.7px" viewBox="0 0 35 45.7" enable-background="new 0 0 35 45.7" xml:space="preserve">
<g id="Layer_1">
	<path fill="#5EA8DD" d="M17.5,0C8,0,0,8,0,17.5c0,6.4,3,13.3,8.5,19.9c4.2,5,8.3,8,8.5,8.1c0.1,0.1,0.3,0.1,0.4,0.1s0.3,0,0.4-0.1
		c0.2-0.1,4.3-3.2,8.5-8.1C32,30.8,35,23.9,35,17.5C35,8,27,0,17.5,0z"/>
</g>
<g id="twitter">
	<path fill="#FFFFFF" d="M27.1,11.4c-0.7,0.3-1.5,0.5-2.3,0.6c0.8-0.5,1.4-1.3,1.7-2.2c-0.8,0.5-1.6,0.8-2.5,1
		c-0.7-0.8-1.7-1.2-2.9-1.2c-2.2,0-4,1.8-4,4c0,0.3,0,0.6,0.1,0.9c-3.3-0.2-6.2-1.7-8.1-4.1c-0.3,0.6-0.5,1.3-0.5,2
		c0,1.4,0.7,2.6,1.8,3.3c-0.6,0-1.3-0.2-1.8-0.5c0,0,0,0,0,0c0,1.9,1.4,3.5,3.2,3.9c-0.3,0.1-0.7,0.1-1,0.1c-0.3,0-0.5,0-0.7-0.1
		c0.5,1.6,2,2.7,3.7,2.7c-1.4,1.1-3.1,1.7-4.9,1.7c-0.3,0-0.6,0-0.9-0.1c1.7,1.1,3.8,1.8,6.1,1.8c7.3,0,11.2-6,11.2-11.2
		c0-0.2,0-0.3,0-0.5C25.9,12.9,26.6,12.2,27.1,11.4z"/>
</g>
</svg>
