<?xml version="1.0" encoding="utf-8"?>
<!-- Generator: Adobe Illustrator 18.0.0, SVG Export Plug-In . SVG Version: 6.00 Build 0)  -->
<!DOCTYPE svg PUBLIC "-//W3C//DTD SVG 1.1//EN" "http://www.w3.org/Graphics/SVG/1.1/DTD/svg11.dtd">
<svg version="1.1" xmlns="http://www.w3.org/2000/svg" xmlns:xlink="http://www.w3.org/1999/xlink" x="0px" y="0px" width="47.2px"
	 height="55px" viewBox="0 0 47.2 55" enable-background="new 0 0 47.2 55" xml:space="preserve">
<g id="Layer_1">
	<path fill="#5EA8DD" stroke="#66767F" stroke-miterlimit="10" d="M23.7,5.5c-9.5,0-17.5,8-17.5,17.5c0,6.4,3,13.3,8.5,19.9
		c4.2,5,8.3,8,8.5,8.1c0.1,0.1,0.3,0.1,0.4,0.1c0.2,0,0.3,0,0.4-0.1c0.2-0.1,4.3-3.2,8.5-8.1c5.6-6.6,8.5-13.5,8.5-19.9
		C41.2,13.5,33.2,5.5,23.7,5.5z"/>
</g>
<g id="twitter">
	<path fill="#FFFFFF" d="M33.3,16.9c-0.7,0.3-1.5,0.5-2.3,0.6c0.8-0.5,1.4-1.3,1.7-2.2c-0.8,0.5-1.6,0.8-2.5,1
		c-0.7-0.8-1.7-1.2-2.9-1.2c-2.2,0-4,1.8-4,4c0,0.3,0,0.6,0.1,0.9c-3.3-0.2-6.2-1.7-8.1-4.1c-0.3,0.6-0.5,1.3-0.5,2
		c0,1.4,0.7,2.6,1.8,3.3c-0.6,0-1.3-0.2-1.8-0.5c0,0,0,0,0,0c0,1.9,1.4,3.5,3.2,3.9c-0.3,0.1-0.7,0.1-1,0.1c-0.3,0-0.5,0-0.7-0.1
		c0.5,1.6,2,2.7,3.7,2.7C18.5,28.3,16.8,29,15,29c-0.3,0-0.6,0-0.9-0.1c1.7,1.1,3.8,1.8,6.1,1.8c7.3,0,11.2-6,11.2-11.2
		c0-0.2,0-0.3,0-0.5C32.1,18.4,32.8,17.7,33.3,16.9z"/>
</g>
</svg>
